<svg viewBox="0 0 71 60" fill="none" xmlns="http://www.w3.org/2000/svg">
  <path d="M37.0572 14.746L37.1481 14.7727L37.152 14.7683C37.5951 14.8485 38.0378 14.5888 38.1693 14.1526C39.3616 10.217 43.1193 7.46504 47.3086 7.46504C47.8002 7.46504 48.2035 7.07267 48.2035 6.5833C48.2035 6.09392 47.8002 5.70156 47.3086 5.70156C42.1666 5.70156 37.8432 9.06483 36.4546 13.6486C36.3121 14.1179 36.5851 14.6077 37.0572 14.746Z" fill="#6D6DF0" stroke="#F9FFF9" stroke-width="0.3"/>
  <path d="M57.7364 42.4384H53.2672C52.8559 42.4384 52.5223 42.1107 52.5223 41.7067C52.5223 41.3027 52.8559 40.9749 53.2672 40.9749H57.7364C63.8971 40.9749 68.9097 36.0509 68.9097 29.999C68.9097 23.9471 63.8971 19.023 57.7364 19.023H57.629C57.4129 19.023 57.2076 18.9311 57.066 18.7706C56.9245 18.6101 56.8607 18.3974 56.8915 18.1873C56.958 17.7315 56.9916 17.2737 56.9916 16.8279C56.9916 11.5829 52.6472 7.31531 47.308 7.31531C45.2308 7.31531 43.2499 7.95296 41.5792 9.15978C41.2121 9.42478 40.6907 9.30718 40.4784 8.91047C35.7468 0.0596993 23.3884 -1.12887 16.9812 6.57053C14.2821 9.81417 13.2216 14.0336 14.0714 18.146C14.165 18.6002 13.8112 19.0236 13.3414 19.0236H13.0429C6.88219 19.0236 1.8696 23.9477 1.8696 29.9996C1.8696 36.0514 6.88219 40.9755 13.0429 40.9755H17.5121C17.9234 40.9755 18.257 41.3032 18.257 41.7072C18.257 42.1113 17.9234 42.439 17.5121 42.439H13.0429C6.06058 42.439 0.379761 36.8585 0.379761 29.9995C0.379761 23.3329 5.74608 17.8742 12.4581 17.5731C11.8276 13.3066 13.0333 9.00295 15.8276 5.64437C22.6875 -2.5996 35.8339 -1.67556 41.3911 7.51707C43.164 6.42522 45.1927 5.85244 47.3077 5.85244C53.7765 5.85244 58.9024 11.261 58.4539 17.58C65.1041 17.9463 70.3992 23.3763 70.3992 29.999C70.3992 36.8585 64.7184 42.4384 57.7361 42.4384L57.7364 42.4384Z" fill="#6D6DF0"/>
  <path d="M16.5174 41.2935C16.5174 51.4659 24.9411 59.737 35.2898 59.737C45.6385 59.737 54.0621 51.4658 54.0621 41.2935C54.0621 31.121 45.6385 22.85 35.2898 22.85C24.941 22.85 16.5174 31.1212 16.5174 41.2935ZM18.3075 41.2935C18.3075 32.0991 25.9234 24.6138 35.2898 24.6138C44.656 24.6138 52.272 32.099 52.272 41.2935C52.272 50.4879 44.656 57.9732 35.2898 57.9732C25.9235 57.9732 18.3075 50.488 18.3075 41.2935Z" fill="#6D6DF0" stroke="#F9FFF9" stroke-width="0.3"/>
  <path d="M34.9348 48.6577C34.9348 49.0388 35.2488 49.3434 35.6302 49.3434C36.0115 49.3434 36.3255 49.0392 36.3255 48.6577V34.7291C36.3255 34.3479 36.0116 34.0434 35.6302 34.0434C35.2488 34.0434 34.9348 34.3479 34.9348 34.7291V48.6577Z" fill="#6D6DF0" stroke="#483EA8" stroke-width="0.3"/>
  <path d="M35.1394 34.2446C35.4105 33.9778 35.8495 33.978 36.1209 34.2446L40.4835 38.5302C40.7564 38.7982 40.7565 39.2335 40.4837 39.5017L35.1394 34.2446ZM35.1394 34.2446C35.1393 34.2446 35.1393 34.2446 35.1393 34.2446L35.1394 34.2446ZM39.5021 39.5018C39.6379 39.6352 39.816 39.7017 39.9928 39.7017L31.7583 39.5018L35.6301 35.6983L39.5021 39.5018ZM39.9928 39.7017C40.1693 39.7017 40.3476 39.6358 40.4836 39.5018L39.9928 39.7017Z" fill="#6D6DF0" stroke="#483EA8" stroke-width="0.3"/>
</svg>
