<svg width="26" height="27" viewBox="0 0 26 27" fill="none" xmlns="http://www.w3.org/2000/svg">
<path d="M5.76215 16.1484L4.85713 19.4477L1.54929 19.5161C0.560727 17.7255 0 15.6769 0 13.4999C0 11.3948 0.524266 9.40961 1.45356 7.66162H1.45427L4.39918 8.18886L5.68923 11.0474C5.41922 11.8161 5.27206 12.6413 5.27206 13.4999C5.27216 14.4318 5.44502 15.3247 5.76215 16.1484Z" fill="#FBBB00"/>
<path d="M25.7722 11.1289C25.9215 11.8969 25.9994 12.6899 25.9994 13.5005C25.9994 14.4094 25.9015 15.2959 25.7151 16.1511C25.0822 19.0612 23.4287 21.6023 21.138 23.4005L21.1373 23.3998L17.428 23.215L16.903 20.0147C18.423 19.1442 19.6109 17.7819 20.2366 16.1511H13.2852V11.1289H20.338H25.7722Z" fill="#518EF8"/>
<path d="M21.1374 23.3992L21.1381 23.3999C18.9103 25.1486 16.0802 26.1949 12.9995 26.1949C8.04883 26.1949 3.74456 23.4927 1.54883 19.5161L5.76169 16.1484C6.85953 19.0097 9.68596 21.0465 12.9995 21.0465C14.4238 21.0465 15.7581 20.6705 16.9031 20.0141L21.1374 23.3992Z" fill="#28B446"/>
<path d="M21.2974 3.7278L17.086 7.09475C15.901 6.37144 14.5002 5.95359 12.9996 5.95359C9.61098 5.95359 6.73168 8.08382 5.68884 11.0477L1.45384 7.66186H1.45312C3.61671 3.58831 7.97527 0.805176 12.9996 0.805176C16.1538 0.805176 19.046 1.9024 21.2974 3.7278Z" fill="#F14336"/>
</svg>
