<svg viewBox="0 0 228 33" fill="none" xmlns="http://www.w3.org/2000/svg">
  <path fill-rule="evenodd" clip-rule="evenodd" d="M161.111 0L146.914 32.6555H153.029L160.96 13.6413L168.466 32.6555H175.65L161.453 0H161.111ZM83.3226 30.0516C82.9805 30.3361 82.339 30.7203 81.3982 31.2041C80.486 31.6879 79.3599 32.1148 78.02 32.4847C76.6801 32.8547 75.1976 33.0254 73.5727 32.997C71.0924 32.94 68.8688 32.4989 66.9017 31.6737C64.9631 30.8199 63.3096 29.6674 61.9412 28.216C60.6013 26.7647 59.575 25.0999 58.8623 23.2217C58.1496 21.3434 57.7932 19.3372 57.7932 17.2028C57.7932 14.8123 58.1496 12.6211 58.8623 10.629C59.6035 8.63698 60.644 6.91527 61.9839 5.46392C63.3524 4.01257 64.9773 2.88848 66.8589 2.09166C68.7405 1.29484 70.8216 0.896425 73.1023 0.896425C75.2119 0.896425 77.0792 1.181 78.7042 1.75016C80.3292 2.31932 81.6548 2.93116 82.6811 3.5857L80.2436 9.4338C79.5309 8.8931 78.5759 8.33817 77.3785 7.76901C76.2097 7.17139 74.8555 6.87259 73.3161 6.87259C72.1187 6.87259 70.9641 7.12871 69.8523 7.64095C68.769 8.12473 67.7997 8.82195 66.9444 9.73261C66.1177 10.6433 65.462 11.7104 64.9773 12.9341C64.4927 14.1294 64.2504 15.4384 64.2504 16.8613C64.2504 18.3696 64.4642 19.7498 64.8918 21.0019C65.348 22.2541 65.9894 23.3355 66.8161 24.2461C67.6429 25.1283 68.6264 25.8113 69.7668 26.2951C70.9356 26.7789 72.247 27.0208 73.7009 27.0208C75.3829 27.0208 76.8226 26.7504 78.02 26.2097C79.2173 25.669 80.1296 25.0999 80.7568 24.5023L83.3226 30.0516ZM6.2006 1.23792H0V32.6555H20.9965V26.6793H6.2006V1.23792ZM33.8521 23.9046C33.2534 22.994 32.9541 22.0407 32.9541 21.0446V1.23792H26.7535V21.1727C26.7535 23.4778 27.3236 25.5267 28.464 27.3196C29.6043 29.084 31.1295 30.4784 33.0396 31.5029C34.9782 32.4989 37.1163 32.997 39.454 32.997C41.8202 32.997 43.9726 32.4989 45.9112 31.5029C47.8497 30.4784 49.3892 29.084 50.5295 27.3196C51.6699 25.5267 52.2401 23.4778 52.2401 21.1727V1.23792H46.125V21.0446C46.125 22.0407 45.8256 22.994 45.227 23.9046C44.6568 24.8153 43.8728 25.5552 42.875 26.1244C41.8772 26.6935 40.7369 26.9781 39.454 26.9781C38.2851 26.9781 37.2018 26.6935 36.204 26.1244C35.2347 25.5552 34.4507 24.8153 33.8521 23.9046ZM95.8206 9.87483L89.5345 17.0876V1.23792H95.8206V9.87483ZM106.344 1.81167L106.853 1.23792H114.893L101.893 15.3246L114.936 32.6555H107.067L97.3601 19.2518L95.8206 20.7885V32.6555H89.5345V21.1091L106.349 1.81584L106.344 1.81167ZM119.644 32.6555V1.23792H129.052C132.216 1.23792 134.91 1.70747 137.134 2.64659C139.357 3.5857 141.139 4.83785 142.479 6.40303C143.848 7.96822 144.845 9.71838 145.473 11.6535C146.1 13.5887 146.413 15.538 146.413 17.5016C146.413 19.8352 145.986 21.941 145.13 23.8193C144.304 25.669 143.163 27.2627 141.709 28.6002C140.256 29.9093 138.574 30.9195 136.663 31.631C134.753 32.314 132.729 32.6555 130.591 32.6555H119.644ZM125.844 26.6793H129.522C131.09 26.6793 132.515 26.4801 133.798 26.0817C135.081 25.6548 136.179 25.043 137.091 24.2461C138.032 23.4493 138.745 22.4533 139.229 21.2581C139.742 20.0344 139.999 18.6399 139.999 17.0747C139.999 15.0258 139.657 13.361 138.973 12.0804C138.317 10.7713 137.49 9.76106 136.492 9.04962C135.523 8.33817 134.525 7.85438 133.499 7.59826C132.473 7.31368 131.603 7.1714 130.89 7.1714H125.844V26.6793ZM189.774 1.23792C191.742 1.23792 193.495 1.49404 195.034 2.00628C196.574 2.49007 197.857 3.20152 198.883 4.14063C199.938 5.05128 200.736 6.16114 201.278 7.4702C201.819 8.75081 202.09 10.2022 202.09 11.8243C202.09 13.1049 201.891 14.3855 201.491 15.6661C201.121 16.9467 200.494 18.1135 199.61 19.1664C198.95 19.9793 198.119 20.6735 197.119 21.2489L204.442 32.6555H197.215L190.568 22.6667H186.439V32.6555H180.238V17.3058H191.182C194.023 17.3058 196.327 15.0023 196.327 12.1608C196.327 9.31928 194.023 7.01578 191.182 7.01578H180.238V1.23792H189.774ZM228 1.23792H206.79V7.21408H214.145V32.6555H220.345V7.21408H228V1.23792Z" fill="black"/>
</svg>
