<svg viewBox="0 0 267 35" fill="none" xmlns="http://www.w3.org/2000/svg">
<path fill-rule="evenodd" clip-rule="evenodd" d="M98.593 1.276V9.90628L92.125 17.2344V1.276H98.593ZM92.125 33.66V21.7679L110.212 1.276H118.217L104.841 15.796L118.261 33.66H110.165L100.177 19.844L98.593 21.428V33.66H92.125ZM182.918 33.66L197.526 0H197.878L212.486 33.66H205.094L197.371 14.0609L189.21 33.66H182.918ZM85.7333 30.976C85.3813 31.2693 84.7213 31.6653 83.7533 32.164C82.8146 32.6627 81.656 33.1027 80.2773 33.484C78.8986 33.8653 77.3733 34.0413 75.7013 34.012C73.1493 33.9533 70.8613 33.4987 68.8373 32.648C66.8426 31.768 65.1413 30.58 63.7333 29.084C62.3546 27.588 61.2986 25.872 60.5653 23.936C59.832 22 59.4653 19.932 59.4653 17.732C59.4653 15.268 59.832 13.0093 60.5653 10.956C61.328 8.90267 62.3986 7.128 63.7773 5.632C65.1853 4.136 66.8573 2.97733 68.7933 2.156C70.7293 1.33467 72.8707 0.924001 75.2173 0.924001C77.388 0.924001 79.3093 1.21733 80.9813 1.804C82.6533 2.39067 84.0173 3.02133 85.0733 3.696L82.5653 9.724C81.832 9.16667 80.8493 8.59467 79.6173 8.008C78.4146 7.392 77.0213 7.084 75.4373 7.084C74.2053 7.084 73.0173 7.348 71.8733 7.876C70.7586 8.37467 69.7613 9.09333 68.8813 10.032C68.0306 10.9707 67.356 12.0707 66.8573 13.332C66.3587 14.564 66.1093 15.9133 66.1093 17.38C66.1093 18.9347 66.3293 20.3573 66.7693 21.648C67.2386 22.9387 67.8986 24.0533 68.7493 24.992C69.6 25.9013 70.612 26.6053 71.7853 27.104C72.988 27.6027 74.3373 27.852 75.8333 27.852C77.564 27.852 79.0453 27.5733 80.2773 27.016C81.5093 26.4587 82.448 25.872 83.0933 25.256L85.7333 30.976ZM6.38 1.276H0V33.66H21.604V27.5H6.38V1.276ZM34.8315 24.64C34.2155 23.7013 33.9075 22.7187 33.9075 21.692V1.276H27.5275V21.824C27.5275 24.2 28.1142 26.312 29.2875 28.16C30.4608 29.9787 32.0302 31.416 33.9955 32.472C35.9902 33.4987 38.1902 34.012 40.5955 34.012C43.0302 34.012 45.2448 33.4987 47.2395 32.472C49.2342 31.416 50.8182 29.9787 51.9915 28.16C53.1648 26.312 53.7515 24.2 53.7515 21.824V1.276H47.4595V21.692C47.4595 22.7187 47.1515 23.7013 46.5355 24.64C45.9488 25.5787 45.1422 26.3413 44.1155 26.928C43.0888 27.5147 41.9155 27.808 40.5955 27.808C39.3928 27.808 38.2782 27.5147 37.2515 26.928C36.2542 26.3413 35.4475 25.5787 34.8315 24.64ZM131.509 23.584L119.585 1.276H127.461L134.897 16.2247L142.157 1.276H150.033L137.889 23.584V33.66H131.509V23.584ZM154.859 1.276V33.66H166.123C168.323 33.66 170.406 33.308 172.371 32.604C174.337 31.8707 176.067 30.8293 177.563 29.48C179.059 28.1013 180.233 26.4587 181.083 24.552C181.963 22.616 182.403 20.4453 182.403 18.04C182.403 16.016 182.081 14.0067 181.435 12.012C180.79 10.0173 179.763 8.21334 178.355 6.6C176.977 4.98667 175.143 3.696 172.855 2.728C170.567 1.76 167.795 1.276 164.539 1.276H154.859ZM165.023 27.5H161.239V7.392H166.431C167.165 7.392 168.059 7.53867 169.115 7.832C170.171 8.096 171.198 8.59467 172.195 9.328C173.222 10.0613 174.073 11.1027 174.747 12.452C175.451 13.772 175.803 15.488 175.803 17.6C175.803 19.2133 175.539 20.6507 175.011 21.912C174.513 23.144 173.779 24.1707 172.811 24.992C171.873 25.8133 170.743 26.444 169.423 26.884C168.103 27.2947 166.637 27.5 165.023 27.5ZM232.431 2.068C230.847 1.54 229.043 1.276 227.019 1.276H217.207V7H228.1C230.972 7 233.3 9.32812 233.3 12.2C233.3 15.0719 230.972 17.4 228.1 17.4H217.207V33.66H223.587V23.364H227.836L234.675 33.66H242.111L234.576 21.9026C235.605 21.3094 236.46 20.5939 237.139 19.756C238.048 18.6707 238.694 17.468 239.075 16.148C239.486 14.828 239.691 13.508 239.691 12.188C239.691 10.516 239.412 9.02 238.855 7.7C238.298 6.35067 237.476 5.20667 236.391 4.268C235.335 3.3 234.015 2.56667 232.431 2.068ZM244.527 1.276H266.351V7.436H258.475V33.66H252.095V7.436H244.527V1.276Z" fill="black"/>
</svg>
